<svg xmlns="http://www.w3.org/2000/svg" version="1.1" xmlns:xlink="http://www.w3.org/1999/xlink" xmlns:svgjs="http://svgjs.dev/svgjs" width="1500" height="1500" viewBox="0 0 1500 1500"><rect width="1500" height="1500" fill="#01ff70"></rect><g transform="matrix(0.6666666666666666,0,0,0.6666666666666666,249.39393939393938,530.3760698875301)"><svg viewBox="0 0 396 174" data-background-color="#01ff70" preserveAspectRatio="xMidYMid meet" height="659" width="1500" xmlns="http://www.w3.org/2000/svg" xmlns:xlink="http://www.w3.org/1999/xlink"><g id="tight-bounds" transform="matrix(1,0,0,1,0.2400000000000091,-0.016926010084020504)"><svg viewBox="0 0 395.52 174.03385202016804" height="174.03385202016804" width="395.52"><g><svg viewBox="0 0 395.52 174.03385202016804" height="174.03385202016804" width="395.52"><g><svg viewBox="0 0 395.52 174.03385202016804" height="174.03385202016804" width="395.52"><g transform="matrix(1,0,0,1,0,107.55990244033612)"><svg viewBox="0 0 395.52 66.47394957983192" height="66.47394957983192" width="395.52"><g id="textblocktransform"><svg viewBox="0 0 395.52 66.47394957983192" height="66.47394957983192" width="395.52" id="textblock"><g><svg viewBox="0 0 395.52 66.47394957983192" height="66.47394957983192" width="395.52"><g transform="matrix(1,0,0,1,0,0)"><svg width="395.52" viewBox="-0.85 -31.25 214.18 36" height="66.47394957983192" data-palette-color="#0074d9"><path d="M39.55-21.4L39.55-21.4Q37.7-20.65 36.38-20.65 35.05-20.65 35.05-21.2L35.05-21.2Q35.05-21.55 36.52-21.6 38-21.65 38.65-21.95L38.65-21.95Q40.55-22.95 40.55-24.9L40.55-24.9Q40.55-25.9 40-27L40-27Q38.4-29.85 32.25-29.85L32.25-29.85Q28.7-29.85 25.15-28.78 21.6-27.7 19.2-25.48 16.8-23.25 16.8-21.35L16.8-21.35Q16.8-18.45 22.55-17.1L22.55-17.1 28.45-16Q32-15.35 33.75-14.2L33.75-14.2Q36.05-12.8 36.05-10.2L36.05-10.2Q36.05-9.15 35.7-7.95L35.7-7.95Q34.1-2.55 27.45 0.3L27.45 0.3Q21.9 2.75 14.35 2.75L14.35 2.75Q12.2 2.75 10.6 2.55L10.6 2.55Q12.2 3.45 14.8 4.1L14.8 4.1Q15 4.15 15 4.3L15 4.3Q15 4.75 13.95 4.75L13.95 4.75Q11.9 4.75 8.85 2.3L8.85 2.3Q4.7 1.65 2.65 0L2.65 0Q1.35-1.05 0.25-3.1-0.85-5.15-0.85-6.8-0.85-8.45-0.2-9.55L-0.2-9.55Q1.3-12.2 3.6-12.2L3.6-12.2Q5.35-12.2 5.65-9.25L5.65-9.25Q6.35-3.55 6.6-2.75L6.6-2.75Q7.35-0.3 9.15 1.4L9.15 1.4Q11.25 1.85 13.7 1.85L13.7 1.85Q19.1 1.85 24.3-0.3 29.5-2.45 31.8-6.4L31.8-6.4Q32.75-7.95 32.75-9.15L32.75-9.15Q32.75-11.5 28.6-12.8L28.6-12.8 19.8-14.8Q17.1-15.45 15.48-16.95 13.85-18.45 13.85-20.4L13.85-20.4Q13.85-23.4 17.6-26.4L17.6-26.4Q20.45-28.7 24.58-29.98 28.7-31.25 32.68-31.25 36.65-31.25 39.25-30.1L39.25-30.1Q42.6-28.55 42.6-25.58 42.6-22.6 39.55-21.4ZM7.35 0.9L7.35 0.9Q4.45-2.3 3.65-7.85L3.65-7.85Q3.2-11 2.8-11 2.4-11 2.05-10.78 1.7-10.55 1.35-9.8 1-9.05 1-7.85L1-7.85Q1-4 3.7-1.25L3.7-1.25Q5.05 0.15 7.35 0.9ZM61.3-0.6L61.3-0.6Q57.9-0.6 57.9-3.75L57.9-3.75Q57.9-5.55 59.5-8.68 61.1-11.8 62.85-13.95L62.85-13.95Q59.75-12.45 55.7-8.53 51.65-4.6 50.05-0.3L50.05-0.3Q49.8 0.1 49.2 0.1L49.2 0.1Q48 0.1 48-1.25L48-1.25Q48.5-4 50.25-7.55L50.25-7.55Q50.8-8.7 53.5-14.25L53.5-14.25Q49.6-11.7 46.87-8.78 44.15-5.85 41.82-2.9 39.5 0.05 39.2 0.05L39.2 0.05Q38.55 0.05 38.07-0.55 37.6-1.15 37.6-1.75L37.6-1.75Q37.6-2.65 40.2-8.35L40.2-8.35 37.2-5.2Q36.1-4.1 35.82-4.1 35.55-4.1 35.55-4.42 35.55-4.75 35.95-5.15L35.95-5.15Q37.8-7 39.25-8.85 40.7-10.7 44.05-15.45L44.05-15.45Q44.6-16.2 45.6-16.2 46.6-16.2 46.6-15.25L46.6-15.25Q46.6-14.9 43.95-10.38 41.3-5.85 41-4.7L41-4.7Q43.05-6.95 47.15-10.75L47.15-10.75Q53.3-16.45 55.25-16.45L55.25-16.45Q55.85-16.45 56.35-16.1 56.85-15.75 56.85-15.33 56.85-14.9 54.9-11.55L54.9-11.55Q53-8.1 52.8-7.45L52.8-7.45Q58.35-12.1 58.35-12.15L58.35-12.15Q63.05-15.8 65.1-15.8L65.1-15.8Q65.7-15.8 66.22-15.43 66.75-15.05 66.75-14.55L66.75-14.55Q66.75-14.45 63.5-10.33 60.25-6.2 59.85-3.55L59.85-3.55Q59.75-2.65 60.2-2.2 60.65-1.75 61.82-1.75 63-1.75 65.27-3.38 67.55-5 69.9-7.75L69.9-7.75Q70.8-8.75 71.12-8.75 71.45-8.75 71.45-8.5L71.45-8.5Q71.45-8.15 71-7.7L71-7.7Q68.55-4.75 65.72-2.68 62.9-0.6 61.3-0.6ZM85.55-14.95L85.55-14.95 86.25-15.1Q86.8-15.1 87.3-14.65 87.8-14.2 87.8-13.95 87.8-13.7 84.7-9.13 81.6-4.55 81.6-2.75L81.6-2.75Q81.6-2.6 81.65-2.45L81.65-2.45Q81.9-1.3 82.75-1.3L82.75-1.3Q85.35-1.3 92.25-9.9L92.25-9.9Q92.4-10.1 92.6-10.1 92.8-10.1 92.8-9.73 92.8-9.35 92.35-8.75L92.35-8.75Q85.95-0.2 82.6-0.2L82.6-0.2Q82.15-0.2 81.75-0.35L81.75-0.35Q79.55-1.2 79.55-3.65L79.55-3.65Q79.55-4.5 79.75-5.35L79.75-5.35 76.65-2.35Q73.7 0.25 72.37 0.25 71.05 0.25 69.85-0.6L69.85-0.6Q68.5-1.6 68.5-3.25L68.5-3.25Q68.5-6.9 73.6-11.98 78.7-17.05 82.95-17.05L82.95-17.05Q84.6-17.05 85.15-15.9L85.15-15.9Q85.3-15.5 85.4-15.23 85.5-14.95 85.55-14.95ZM70.6-2.65L70.6-2.65Q70.6-0.85 71.85-0.85L71.85-0.85Q74.75-0.85 79.75-7.2L79.75-7.2 85.05-14.5Q84.65-15.2 83.75-15.2L83.75-15.2Q80.7-15.2 75.65-10.48 70.6-5.75 70.6-2.65ZM99.74 0.25L99.74 0.25Q95.99 0.25 95.99-3.9L95.99-3.9Q95.99-6 97.09-8.5 98.19-11 99.49-12.7L99.49-12.7Q99.24-12.65 98.84-12.65L98.84-12.65Q97.64-12.65 96.84-14.35L96.84-14.35 93.14-9.55Q90.04-5.7 89.54-5.7L89.54-5.7Q89.29-5.7 89.29-5.9L89.29-5.9Q89.29-6.4 90.14-7.35L90.14-7.35Q94.49-12.4 96.29-15.9L96.29-15.9Q97.44-20.25 99.19-20.25L99.19-20.25Q100.34-20.25 100.34-19.25 100.34-18.25 99.09-16.7L99.09-16.7 97.89-15.1Q97.89-14.05 99.44-14.05L99.44-14.05Q100.34-14.05 101.44-14.7L101.44-14.7 102.74-15.5Q102.84-15.55 103.24-15.55 103.64-15.55 104.09-15.05 104.54-14.55 104.39-14.15L104.39-14.15 100.94-9.8Q97.74-5.7 97.74-3.33 97.74-0.95 99.94-0.95L99.94-0.95Q102.24-0.95 105.59-3.4L105.59-3.4Q107.59-4.85 109.24-6.65L109.24-6.65Q110.79-8.45 110.94-8.45L110.94-8.45Q111.29-8.45 111.29-8.08 111.29-7.7 110.84-7.2L110.84-7.2 109.24-5.4Q107.89-4 106.24-2.7L106.24-2.7Q102.29 0.25 99.74 0.25ZM125.64-15.15L125.64-15.15Q131.24-24.25 133.44-24.25L133.44-24.25Q133.79-24.25 134.42-24.03 135.04-23.8 135.04-23.35L135.04-23.35Q135.04-23.1 134.79-22.7L134.79-22.7Q130.79-17.8 128.84-15.35L128.84-15.35Q122.94-7.9 122.34-4.65L122.34-4.65Q122.19-3.95 122.19-3.25L122.19-3.25Q122.19-1 124.04-1L124.04-1Q127.74-1 133.69-7.85L133.69-7.85Q134.19-8.35 134.54-8.43 134.89-8.5 134.89-8.25 134.89-8 134.59-7.65L134.59-7.65Q128.79-0.7 124.29 0.1L124.29 0.1Q124.04 0.15 123.59 0.15L123.59 0.15Q122.04 0.15 121.27-0.93 120.49-2 120.49-3.25L120.49-3.25Q120.49-4.65 121.04-6.35L121.04-6.35 116.99-2.3Q114.24 0.25 112.67 0.25 111.09 0.25 110.04-0.6L110.04-0.6Q108.79-1.55 108.79-3.25L108.79-3.25Q108.79-6.9 113.89-11.98 118.99-17.05 123.24-17.05L123.24-17.05Q124.64-17.05 125.19-16.3L125.19-16.3Q125.39-16.05 125.64-15.15ZM110.89-2.65L110.89-2.65Q110.89-0.85 112.14-0.85L112.14-0.85Q114.29-0.85 119.29-6.75L119.29-6.75Q120.19-7.8 125.29-14.6L125.29-14.6Q124.94-15.2 124.09-15.2L124.09-15.2Q120.99-15.2 115.94-10.48 110.89-5.75 110.89-2.65ZM135.14 0.65L135.14 0.65Q134.59 0.65 134.14 0.5L134.14 0.5Q130.94-0.4 130.94-3.1L130.94-3.1Q130.94-6.6 135.34-11.2 139.74-15.8 143.24-15.8L143.24-15.8Q144.39-15.8 145.11-15.18 145.84-14.55 145.84-13.65L145.84-13.65Q145.84-10.85 141.61-8.3 137.39-5.75 134.74-5.75L134.74-5.75Q134.34-5.75 134.04-5.85L134.04-5.85Q133.29-4.5 133.29-3L133.29-3Q133.29-0.4 135.76-0.4 138.24-0.4 142.19-3.75L142.19-3.75Q145.24-6.2 147.39-8.95L147.39-8.95Q147.84-9.55 148.16-9.55 148.49-9.55 148.49-9.25 148.49-8.95 148.09-8.4L148.09-8.4Q145.39-4.85 141.59-2.1 137.79 0.65 135.14 0.65ZM144.59-13.75L144.59-13.75Q144.59-14.35 143.31-14.35 142.04-14.35 139.69-12.4L139.69-12.4Q136.54-9.8 134.79-6.95L134.79-6.95Q135.09-6.85 135.44-6.85L135.44-6.85Q137.34-6.85 140.51-8.88 143.69-10.9 144.49-13.3L144.49-13.3Q144.59-13.55 144.59-13.75ZM155.64 0.25L155.64 0.25Q151.89 0.25 151.89-3.9L151.89-3.9Q151.89-6 152.99-8.5 154.09-11 155.39-12.7L155.39-12.7Q155.14-12.65 154.74-12.65L154.74-12.65Q153.54-12.65 152.74-14.35L152.74-14.35 149.04-9.55Q145.94-5.7 145.44-5.7L145.44-5.7Q145.19-5.7 145.19-5.9L145.19-5.9Q145.19-6.4 146.04-7.35L146.04-7.35Q150.39-12.4 152.19-15.9L152.19-15.9Q153.34-20.25 155.09-20.25L155.09-20.25Q156.24-20.25 156.24-19.25 156.24-18.25 154.99-16.7L154.99-16.7 153.79-15.1Q153.79-14.05 155.34-14.05L155.34-14.05Q156.24-14.05 157.34-14.7L157.34-14.7 158.64-15.5Q158.74-15.55 159.14-15.55 159.54-15.55 159.99-15.05 160.44-14.55 160.29-14.15L160.29-14.15 156.84-9.8Q153.64-5.7 153.64-3.33 153.64-0.95 155.84-0.95L155.84-0.95Q158.14-0.95 161.49-3.4L161.49-3.4Q163.49-4.85 165.14-6.65L165.14-6.65Q166.69-8.45 166.84-8.45L166.84-8.45Q167.19-8.45 167.19-8.08 167.19-7.7 166.74-7.2L166.74-7.2 165.14-5.4Q163.79-4 162.14-2.7L162.14-2.7Q158.19 0.25 155.64 0.25ZM178.18-10.6L178.18-10.6Q178.18-8.85 174.83-4.75L174.83-4.75Q170.88 0.1 168.08 0.1L168.08 0.1 167.28 0.1Q165.98 0.1 165.23-1.25L165.23-1.25Q164.63-2.2 164.63-3.35L164.63-3.35Q164.63-6.35 169.01-11.78 173.38-17.2 176.08-17.2L176.08-17.2Q178.63-17.2 178.63-14.5L178.63-14.5Q178.63-13.8 178.38-12.7L178.38-12.7Q178.43-12.55 179.33-12.55 180.23-12.55 182.08-13.5L182.08-13.5Q182.03-12.65 178.13-11.05L178.13-11.05Q178.18-10.85 178.18-10.6ZM174.93-13.2L174.93-13.2Q173.23-13.2 170.11-9.2 166.98-5.2 166.98-3.3 166.98-1.4 168.18-1.4L168.18-1.4Q170.33-1.4 173.63-5.3 176.93-9.2 176.93-10.9L176.93-10.9Q176.13-11.35 174.93-13.2ZM190.58-12.45L190.58-12.45Q190.58-15.85 192.68-15.85L192.68-15.85Q192.88-15.85 193.13-15.8L193.13-15.8Q193.98-15.65 193.98-14.5 193.98-13.35 193.58-11.6L193.58-11.6Q193.18-10.3 193.03-9.65L193.03-9.65Q193.18-8.8 193.86-7.48 194.53-6.15 195.71-6.15 196.88-6.15 198.33-7.75L198.33-7.75Q198.63-8.1 198.91-8.1 199.18-8.1 199.21-7.78 199.23-7.45 198.83-6.9L198.83-6.9Q197.28-5.05 195.58-5.05L195.58-5.05Q193.13-5.05 191.63-8.65L191.63-8.65Q190.08-5.1 187.23-2.53 184.38 0.05 181.58 0.05L181.58 0.05Q178.93 0.05 178.93-3.95L178.93-3.95Q178.93-7.1 184.81-15.55 190.68-24 193.78-24L193.78-24Q194.43-24 194.96-23.6 195.48-23.2 195.48-22.65L195.48-22.65Q195.48-22.7 194.76-21.9 194.03-21.1 190.81-17.6 187.58-14.1 184.48-9.9 181.38-5.7 181.38-3.4L181.38-3.4Q181.38-2.8 181.71-2.1 182.03-1.4 182.78-1.4L182.78-1.4Q184.98-1.4 187.93-4.8L187.93-4.8Q190.38-7.8 190.93-9.85L190.93-9.85Q190.58-10.9 190.58-12.45ZM199.98 0.65L199.98 0.65Q199.43 0.65 198.98 0.5L198.98 0.5Q195.78-0.4 195.78-3.1L195.78-3.1Q195.78-6.6 200.18-11.2 204.58-15.8 208.08-15.8L208.08-15.8Q209.23-15.8 209.95-15.18 210.68-14.55 210.68-13.65L210.68-13.65Q210.68-10.85 206.45-8.3 202.23-5.75 199.58-5.75L199.58-5.75Q199.18-5.75 198.88-5.85L198.88-5.85Q198.13-4.5 198.13-3L198.13-3Q198.13-0.4 200.6-0.4 203.08-0.4 207.03-3.75L207.03-3.75Q210.08-6.2 212.23-8.95L212.23-8.95Q212.68-9.55 213-9.55 213.33-9.55 213.33-9.25 213.33-8.95 212.93-8.4L212.93-8.4Q210.23-4.85 206.43-2.1 202.63 0.65 199.98 0.65ZM209.43-13.75L209.43-13.75Q209.43-14.35 208.15-14.35 206.88-14.35 204.53-12.4L204.53-12.4Q201.38-9.8 199.63-6.95L199.63-6.95Q199.93-6.85 200.28-6.85L200.28-6.85Q202.18-6.85 205.35-8.88 208.53-10.9 209.33-13.3L209.33-13.3Q209.43-13.55 209.43-13.75Z" opacity="1" transform="matrix(1,0,0,1,0,0)" fill="#0074d9" class="wordmark-text-0" data-fill-palette-color="primary" id="text-0"></path></svg></g></svg></g></svg></g></svg></g><g transform="matrix(1,0,0,1,136.0176372750054,0)"><svg viewBox="0 0 123.4847254499892 91.86699831932772" height="91.86699831932772" width="123.4847254499892"><g><svg xmlns="http://www.w3.org/2000/svg" xmlns:xlink="http://www.w3.org/1999/xlink" version="1.1" x="8" y="0" viewBox="7.853 15.093 72.50395760464336 61.968999999999994" enable-background="new 0 0 90 90" xml:space="preserve" height="91.86699831932772" width="107.4847254499892" class="icon-icon-0" data-fill-palette-color="accent" id="icon-0"><g fill="#374151" data-fill-palette-color="accent"><path d="M34.458 24.924c-2.88-1.648-5.694-2.871-6.841-3.495 0.137-0.478 0.404-0.789 0.725-1.162 0.466-0.54 1.048-1.212 1.048-2.375 0-1.544-1.257-2.799-2.801-2.799-1.543 0-2.798 1.255-2.798 2.799 0 0.511 0.416 0.926 0.926 0.926s0.926-0.416 0.926-0.926c0-0.522 0.424-0.947 0.946-0.947 0.522 0 0.947 0.425 0.947 0.947 0 0.453-0.184 0.685-0.597 1.165-0.434 0.503-1.014 1.178-1.209 2.332-0.49 0.315-1.266 0.937-2.516 1.945-0.618 0.497-1.43 0.964-2.256 1.467h-0.042l0.012 0.018c-0.03 0.019-0.06 0.037-0.089 0.055-2.094 0.172-3.999 1.299-5.083 3.128L7.853 41.326l6.532 3.073 4.848-10.116c0 0 1.839 10.014 1.683 13.383-0.328 7.012-6.088 27.412-6.088 27.412-0.106 0.485 0.009 0.988 0.321 1.374 0.306 0.388 0.78 0.61 1.275 0.61h22.057c0.495 0 0.959-0.223 1.274-0.61 0.309-0.386 0.425-0.889 0.318-1.374 0 0-5.764-20.4-6.091-27.412-0.158-3.369 1.688-13.383 1.688-13.383l4.842 10.116 6.53-3.073-7.895-13.322C38.132 26.291 36.394 25.198 34.458 24.924zM27.45 34.601l-5.657-8.483c2.059-1.438 4.008-2.754 4.835-3.223 1.033 0.533 3.642 1.973 6.312 3.475L27.45 34.601z" fill="#374151" data-fill-palette-color="accent"></path><path d="M73.943 31.843h0.236c4.507 0 5.444 0 5.937-0.51 0.167-0.173 0.251-0.395 0.24-0.642-0.018-0.448-0.358-0.895-2.104-1.967-3.782-2.33-10.174-6.1-12.061-7.125 0.136-0.477 0.404-0.788 0.724-1.162 0.469-0.54 1.049-1.211 1.049-2.375 0-1.544-1.256-2.8-2.8-2.8-1.543 0-2.799 1.256-2.799 2.8 0 0.511 0.415 0.926 0.926 0.926s0.927-0.416 0.927-0.926c0-0.522 0.425-0.947 0.946-0.947 0.522 0 0.947 0.425 0.947 0.947 0 0.453-0.184 0.685-0.597 1.165-0.432 0.501-1.01 1.172-1.207 2.314-1.743 0.935-8.314 4.811-12.166 7.183-1.746 1.075-2.087 1.523-2.103 1.966-0.011 0.246 0.071 0.469 0.239 0.643 0.489 0.51 1.427 0.51 6.054 0.51l1.984 0.024v2.383h-2.628l0.753 42.675h4.879l3.877-33.789 3.876 33.789h4.882l0.75-42.675h-1.632v-2.396L73.943 31.843zM72.084 34.25h-6.887-5.89v-2.37l3.803 0.1 8.974-0.114V34.25zM53.708 30.395c-0.306 0.015-0.915 0-1.452-0.025 2.63-1.621 10.899-6.258 12.941-7.308 2.047 1.053 10.362 5.715 12.953 7.307-0.541 0.027-1.173 0.027-1.463 0.027l-2.721-0.012L53.708 30.395z" fill="#374151" data-fill-palette-color="accent"></path></g></svg></g></svg></g><g><rect width="136.0176372750054" height="5.994689374225209" y="84.87230894510252" x="259.5023627249946" fill="#374151" data-fill-palette-color="accent"></rect><rect width="136.0176372750054" height="5.994689374225209" y="84.87230894510252" x="0" fill="#374151" data-fill-palette-color="accent"></rect><rect width="136.0176372750054" height="5.994689374225209" y="72.8829301966521" x="259.5023627249946" fill="#374151" data-fill-palette-color="accent"></rect><rect width="136.0176372750054" height="5.994689374225209" y="72.8829301966521" x="0" fill="#374151" data-fill-palette-color="accent"></rect></g></svg></g></svg></g><defs></defs></svg><rect width="395.52" height="174.03385202016804" fill="none" stroke="none" visibility="hidden"></rect></g></svg></g></svg>